<?xml version="1.0" standalone="no"?>
<!DOCTYPE svg PUBLIC "-//W3C//DTD SVG 20010904//EN"
 "http://www.w3.org/TR/2001/REC-SVG-20010904/DTD/svg10.dtd">
<svg version="1.0" xmlns="http://www.w3.org/2000/svg"
 width="1280.000000pt" height="1280.000000pt" viewBox="0 0 1280.000000 1280.000000"
 preserveAspectRatio="xMidYMid meet">

<g transform="translate(0.000000,1280.000000) scale(0.100000,-0.100000)"
fill="#000000" stroke="none">
<path d="M3265 9530 l-3130 -3130 3133 -3133 3132 -3132 3132 3132 3133 3133
-3130 3130 c-1721 1721 -3132 3130 -3135 3130 -3 0 -1414 -1409 -3135 -3130z
m5775 -495 l2635 -2635 -2638 -2638 -2637 -2637 -2637 2637 -2638 2638 2635
2635 c1449 1449 2637 2635 2640 2635 3 0 1191 -1186 2640 -2635z"/>
<path d="M6226 9915 c-230 -38 -500 -138 -671 -249 -44 -29 -149 -117 -233
-197 -84 -79 -243 -227 -352 -329 -222 -205 -314 -305 -362 -395 -32 -59 -33
-63 -32 -180 1 -103 5 -132 28 -205 39 -118 113 -262 213 -414 l85 -130 -16
-150 c-38 -360 -19 -463 120 -634 l27 -33 -114 54 c-286 135 -293 140 -358
201 -35 34 -108 120 -161 191 -53 72 -116 147 -139 167 -90 77 -222 128 -331
128 -164 0 -277 -116 -297 -301 -6 -57 -8 -62 -78 -132 -92 -93 -115 -148
-122 -298 -6 -117 8 -221 37 -279 29 -56 91 -107 156 -126 97 -28 171 -11 389
90 113 52 170 58 264 30 30 -8 285 -133 567 -276 390 -197 514 -264 514 -278
0 -9 6 -36 14 -58 l14 -40 -246 -118 c-640 -305 -685 -326 -742 -331 -47 -4
-77 2 -215 47 -141 46 -173 53 -265 57 -125 6 -199 -10 -303 -65 -134 -69
-197 -159 -197 -277 0 -133 57 -199 259 -296 69 -34 128 -63 130 -65 2 -2 16
-66 32 -143 15 -77 37 -157 48 -178 26 -51 85 -105 151 -139 49 -26 65 -29
150 -29 86 0 101 3 163 32 78 37 172 125 207 193 13 25 33 87 46 139 28 113
71 190 136 242 52 40 109 69 649 323 l357 168 91 -55 c155 -94 436 -202 591
-229 85 -15 156 -3 278 48 128 53 351 167 425 218 37 25 69 46 72 46 3 0 536
-255 908 -435 171 -82 248 -177 283 -345 8 -41 27 -96 42 -123 34 -64 136
-158 209 -193 51 -26 69 -29 153 -29 81 0 103 4 150 26 126 59 169 126 207
324 l25 136 127 64 c69 34 145 77 168 94 93 68 129 202 83 309 -26 60 -107
140 -179 176 -176 89 -355 88 -601 -5 -67 -26 -100 -32 -160 -32 l-75 -1 -275
131 c-417 198 -725 345 -728 348 -22 20 59 66 592 335 l584 295 88 0 c86 0 93
-2 200 -52 160 -74 199 -86 284 -87 93 -1 158 28 207 93 53 69 65 130 61 299
-3 139 -5 150 -32 207 -18 37 -53 83 -91 120 -60 58 -62 62 -74 135 -21 131
-68 209 -152 254 -132 73 -339 29 -480 -101 -33 -31 -93 -102 -132 -157 -106
-152 -193 -234 -305 -290 -86 -43 -311 -149 -429 -202 l-52 -23 68 67 c76 75
132 174 151 269 16 75 8 329 -14 446 l-16 89 91 136 c171 257 249 457 249 642
0 80 -3 93 -36 159 -46 93 -157 210 -409 431 -104 92 -226 200 -270 240 -328
300 -546 428 -840 492 -121 26 -431 34 -559 13z m395 -186 c177 -18 314 -58
456 -134 140 -74 223 -138 493 -380 80 -71 215 -191 300 -267 236 -208 290
-277 290 -369 0 -65 -28 -181 -63 -259 l-24 -54 -5 119 c-8 174 -44 251 -195
415 l-60 65 -66 -64 -66 -64 58 -64 c92 -100 129 -160 142 -228 15 -80 6 -154
-44 -380 -40 -180 -42 -193 -30 -245 35 -153 46 -243 47 -380 1 -137 -1 -148
-25 -201 -52 -111 -101 -150 -471 -373 -124 -75 -245 -155 -268 -177 -65 -63
-82 -113 -89 -258 l-6 -123 -45 -40 c-63 -54 -208 -123 -315 -149 -114 -27
-263 -23 -370 11 -94 30 -234 102 -288 151 l-45 39 -3 127 c-6 205 -18 219
-387 440 -338 202 -387 241 -426 335 -43 102 -40 297 9 506 29 129 30 122 -32
392 -31 137 -34 167 -31 257 6 133 36 197 143 308 55 56 75 84 75 104 0 34
-61 101 -91 101 -70 0 -228 -181 -280 -319 -27 -72 -44 -274 -29 -332 16 -60
7 -57 -27 8 -46 87 -83 198 -94 285 -10 72 -9 81 11 123 29 59 114 152 292
317 79 73 220 206 314 295 218 208 264 244 399 309 271 131 558 183 846 153z
m-2556 -2204 c62 -30 122 -92 224 -234 41 -56 109 -134 150 -173 69 -64 96
-80 286 -173 116 -56 303 -144 417 -196 l207 -94 1 -128 0 -129 -42 25 c-108
62 -929 467 -978 481 -35 11 -91 17 -153 17 -106 -1 -123 -6 -342 -105 -76
-34 -133 -44 -170 -30 -34 13 -45 58 -44 181 1 85 3 108 9 83 10 -41 51 -80
85 -80 35 0 71 19 84 44 6 12 12 106 13 226 3 186 5 209 25 253 12 26 32 52
45 57 35 15 124 3 183 -25z m5077 5 c32 -40 41 -94 45 -290 2 -107 6 -205 8
-217 6 -26 52 -53 89 -53 34 0 73 37 85 80 7 28 9 13 10 -76 1 -118 -10 -168
-39 -184 -35 -19 -94 -10 -175 26 -226 101 -238 105 -342 105 -74 1 -115 -5
-168 -21 -62 -20 -300 -137 -892 -441 -106 -55 -195 -99 -198 -99 -3 0 -4 57
-3 127 l3 127 320 148 c477 220 591 279 658 338 62 56 141 150 231 276 73 103
141 153 241 178 43 10 109 -2 127 -24z m-3468 -944 c32 -22 62 -51 67 -64 5
-13 9 -71 9 -129 0 -133 15 -168 107 -253 160 -146 460 -241 695 -218 243 23
518 167 606 316 25 43 27 58 31 167 2 84 8 126 18 142 14 21 150 113 167 113
4 0 6 -107 4 -238 l-3 -239 -44 -89 c-37 -75 -60 -105 -145 -190 -56 -55 -127
-118 -160 -139 -76 -49 -277 -149 -390 -192 -113 -44 -166 -44 -301 -4 -344
103 -571 249 -716 462 -75 112 -79 129 -79 400 l0 241 38 -23 c20 -12 63 -41
96 -63z m2026 -761 c113 -54 338 -161 500 -238 l295 -141 115 0 c113 -1 117 0
255 49 130 46 147 49 235 49 118 0 194 -26 258 -89 70 -70 54 -114 -67 -175
l-62 -31 8 28 c22 87 -10 143 -82 143 -71 0 -79 -17 -130 -261 -24 -118 -49
-243 -56 -279 -15 -84 -31 -113 -72 -139 -54 -33 -106 -36 -165 -11 -59 26
-138 104 -147 147 -35 165 -60 228 -126 317 -76 101 -137 137 -635 376 -255
123 -464 227 -464 231 0 5 23 38 52 73 39 50 55 63 67 57 9 -5 108 -53 221
-106z m-2205 58 c10 -14 36 -46 58 -70 22 -24 38 -45 36 -47 -2 -1 -197 -94
-434 -205 -236 -111 -454 -218 -483 -238 -126 -86 -214 -221 -248 -382 -16
-73 -23 -89 -62 -133 -78 -86 -173 -114 -249 -74 -59 30 -66 49 -127 347 -31
156 -64 294 -72 307 -32 50 -107 52 -145 4 -17 -22 -20 -36 -16 -79 3 -29 3
-53 1 -53 -11 0 -92 44 -121 67 -27 20 -33 31 -33 62 0 32 6 45 37 71 20 18
62 45 93 59 49 23 67 26 160 26 100 -1 112 -3 245 -50 133 -47 145 -49 245
-50 l105 0 170 79 c94 43 238 111 320 151 83 39 202 96 265 126 63 29 140 66
170 81 30 15 58 27 61 27 4 1 15 -11 24 -26z"/>
<path d="M5345 7826 c-85 -38 -103 -112 -60 -241 53 -160 155 -288 272 -343
48 -22 71 -26 138 -26 148 2 222 49 354 224 164 218 168 302 16 372 -48 22
-60 23 -370 25 -253 2 -326 0 -350 -11z"/>
<path d="M6874 7822 c-175 -61 -180 -156 -19 -372 130 -175 220 -233 360 -234
70 -1 89 3 148 31 87 41 162 118 215 221 96 185 96 310 -1 355 -30 15 -76 17
-344 17 -268 -1 -315 -3 -359 -18z"/>
<path d="M6440 7139 c-31 -12 -95 -73 -121 -116 -11 -18 -37 -84 -59 -147 -21
-63 -50 -130 -63 -148 -77 -102 -74 -213 7 -252 54 -25 146 -21 207 10 66 33
135 34 187 4 23 -14 60 -24 98 -28 52 -4 68 -1 103 18 42 24 71 70 71 113 0
13 -20 55 -45 92 -24 38 -56 105 -71 149 -73 221 -151 317 -256 315 -18 0 -44
-5 -58 -10z"/>
</g>
</svg>
