<?xml version="1.0" standalone="no"?>
<!DOCTYPE svg PUBLIC "-//W3C//DTD SVG 20010904//EN"
 "http://www.w3.org/TR/2001/REC-SVG-20010904/DTD/svg10.dtd">
<svg version="1.0" xmlns="http://www.w3.org/2000/svg"
 width="1280.000000pt" height="1280.000000pt" viewBox="0 0 1280.000000 1280.000000"
 preserveAspectRatio="xMidYMid meet">

<g transform="translate(0.000000,1280.000000) scale(0.100000,-0.100000)"
fill="#000000" stroke="none">
<path d="M3265 9530 l-3130 -3130 3133 -3133 3132 -3132 3130 3130 3130 3130
-3133 3133 -3132 3132 -3130 -3130z m5772 -5768 c-1447 -1448 -2637 -2631
-2644 -2630 -6 2 -1193 1188 -2639 2636 l-2627 2634 2634 2634 2634 2634 2637
-2637 2638 -2638 -2633 -2633z"/>
<path d="M6305 10868 c-35 -76 -51 -188 -75 -504 -32 -433 -56 -608 -111 -828
-46 -184 -145 -456 -177 -488 -22 -22 -126 148 -255 412 -90 184 -182 333
-240 388 l-34 33 14 -53 c19 -71 12 -118 -42 -279 -59 -173 -82 -292 -95 -472
-10 -137 -2 -408 16 -549 8 -57 2 -59 -71 -24 -68 31 -126 90 -286 291 -75 94
-162 202 -194 240 -56 69 -58 69 -51 34 14 -78 36 -326 46 -529 15 -304 28
-464 51 -624 11 -76 18 -141 15 -143 -13 -13 -307 172 -515 323 -48 36 -62 42
-57 27 31 -98 44 -270 66 -888 15 -404 43 -624 112 -870 60 -215 136 -383 252
-554 70 -103 73 -111 80 -181 15 -169 75 -371 161 -542 192 -384 520 -675 928
-824 l92 -33 -587 -1 -588 0 0 -260 0 -260 1688 2 1687 3 0 255 0 255 -645 3
-645 3 75 25 c99 33 297 131 385 189 216 145 396 339 523 562 76 133 146 313
172 440 10 47 32 88 115 213 256 387 383 706 430 1080 32 249 13 567 -50 835
-32 137 -131 436 -144 435 -4 -1 -19 -22 -36 -47 -42 -67 -149 -178 -221 -229
-58 -41 -140 -83 -192 -99 -23 -7 -23 -6 7 54 50 98 90 207 123 330 50 192 51
438 2 596 -20 62 -75 185 -83 185 -3 0 -17 -27 -30 -61 -31 -80 -109 -196
-160 -237 -57 -46 -131 -81 -187 -89 -46 -6 -47 -6 -41 18 3 13 12 96 18 184
31 420 -64 837 -250 1093 l-39 53 -21 -63 c-12 -35 -26 -106 -32 -158 -28
-263 -43 -307 -137 -399 -50 -49 -201 -156 -220 -156 -4 0 -14 87 -24 194 -30
330 -84 615 -163 861 -21 63 -80 225 -132 359 -52 134 -115 306 -141 382 -26
77 -51 139 -55 139 -4 0 -19 -24 -32 -52z m-29 -2310 c184 -137 282 -330 329
-648 20 -131 33 -183 90 -342 24 -71 41 -128 37 -128 -4 0 -59 7 -122 16 -149
21 -391 14 -535 -15 -55 -12 -102 -21 -104 -21 -10 0 10 230 24 285 8 33 49
130 90 215 107 222 145 376 145 583 0 42 4 77 9 77 4 0 21 -10 37 -22z m-672
-723 c40 -140 102 -301 154 -400 l37 -70 -115 -57 c-63 -31 -149 -79 -190
-106 -73 -49 -75 -50 -84 -29 -5 12 -9 99 -9 192 -1 182 7 241 64 468 24 95
55 265 60 322 0 6 11 -37 25 -95 13 -58 39 -159 58 -225z m1681 -106 c36 -202
81 -416 114 -534 11 -39 18 -71 16 -73 -2 -2 -24 13 -50 33 -81 61 -234 147
-345 192 -58 23 -111 43 -117 43 -7 0 -13 3 -13 6 0 16 98 192 158 284 65 101
190 256 198 247 2 -2 20 -91 39 -198z m-2246 -543 c60 -36 141 -81 179 -100
l70 -35 -74 -76 c-82 -85 -172 -200 -225 -287 -19 -32 -37 -58 -40 -58 -4 0
-9 10 -12 23 -3 12 -28 105 -56 207 -52 185 -121 474 -121 504 0 11 27 -5 84
-48 46 -35 134 -94 195 -130z m2996 -63 c18 -186 -23 -640 -67 -751 -10 -26
-11 -26 -29 28 -49 140 -155 325 -267 463 -54 67 -55 70 -37 84 179 134 361
253 386 253 4 0 11 -34 14 -77z m-1382 -142 c422 -100 760 -433 867 -852 138
-541 -123 -1108 -622 -1352 -170 -83 -327 -118 -528 -118 -646 0 -1170 527
-1170 1176 0 760 713 1322 1453 1146z"/>
</g>
</svg>
