<?xml version="1.0" standalone="no"?>
<!DOCTYPE svg PUBLIC "-//W3C//DTD SVG 20010904//EN"
 "http://www.w3.org/TR/2001/REC-SVG-20010904/DTD/svg10.dtd">
<svg version="1.0" xmlns="http://www.w3.org/2000/svg"
 width="1280.000000pt" height="1280.000000pt" viewBox="0 0 1280.000000 1280.000000"
 preserveAspectRatio="xMidYMid meet">

<g transform="translate(0.000000,1280.000000) scale(0.100000,-0.100000)"
fill="#000000" stroke="none">
<path d="M3265 9530 l-3130 -3130 3133 -3133 3132 -3132 3132 3132 3133 3133
-3130 3130 c-1721 1721 -3132 3130 -3135 3130 -3 0 -1414 -1409 -3135 -3130z
m5775 -495 l2635 -2635 -2638 -2638 -2637 -2637 -2637 2637 -2638 2638 2635
2635 c1449 1449 2637 2635 2640 2635 3 0 1191 -1186 2640 -2635z"/>
<path d="M4597 9314 l-47 -37 74 -141 c40 -78 110 -205 155 -283 113 -200 141
-292 161 -528 12 -156 12 -155 1 -155 -8 0 -541 320 -688 413 -24 15 -45 27
-48 27 -3 0 -5 -40 -5 -89 l0 -89 356 -283 c196 -156 369 -300 385 -322 15
-21 41 -70 58 -110 31 -75 77 -244 69 -252 -3 -3 -77 29 -164 71 -337 161
-375 176 -416 171 -50 -7 -152 -68 -297 -178 -188 -142 -177 -131 -162 -168 8
-17 14 -31 15 -31 2 0 40 11 86 25 90 27 186 32 239 14 17 -6 199 -102 404
-213 l372 -202 3 -59 c2 -33 1 -147 -3 -252 l-7 -193 -619 0 -619 0 0 -45 0
-45 620 0 620 0 -5 -347 c-3 -192 -8 -385 -11 -430 l-6 -82 -289 -168 c-275
-159 -288 -168 -282 -193 3 -14 9 -28 12 -33 4 -4 153 6 332 23 178 16 333 30
345 30 11 0 59 -33 105 -73 47 -39 107 -91 135 -114 l50 -41 99 144 c61 90
107 146 119 149 12 3 197 30 411 60 215 31 401 58 415 61 20 5 -45 41 -332
185 l-358 179 0 325 0 325 791 0 792 0 -114 -117 c-169 -175 -301 -343 -499
-638 -165 -244 -305 -355 -625 -492 -94 -40 -185 -61 -308 -70 -50 -3 -90 -11
-92 -17 -20 -69 -19 -72 61 -106 41 -18 71 -36 67 -40 -4 -4 -134 -59 -288
-123 -154 -63 -385 -161 -514 -216 -231 -99 -235 -100 -279 -89 -112 28 -436
-24 -844 -134 l-118 -32 0 -32 0 -32 103 -6 c56 -3 739 -8 1517 -11 778 -3
1893 -8 2478 -12 l1062 -6 0 129 c0 71 -3 153 -6 182 l-7 52 -179 0 c-99 0
-178 3 -176 8 2 4 43 60 92 125 49 65 87 119 85 121 -5 5 -572 56 -616 56 -43
0 -42 12 5 33 129 58 422 203 422 209 0 4 -101 79 -225 168 -124 89 -227 165
-230 170 -3 4 30 34 73 65 108 81 304 282 384 395 114 161 196 345 232 522 16
75 22 188 10 188 -3 0 -122 -36 -264 -80 -142 -44 -263 -80 -269 -80 -5 0 25
67 67 149 42 83 73 153 68 158 -4 4 -76 8 -159 8 -123 -1 -169 -5 -242 -23
-156 -39 -341 -129 -495 -241 l-70 -51 -845 0 -845 0 0 120 0 121 212 242
c117 133 233 263 258 288 53 55 126 85 247 102 l83 12 250 387 c137 213 250
390 250 395 0 4 -11 16 -24 25 l-24 17 -186 -199 c-310 -332 -330 -343 -602
-359 -126 -7 -134 -8 -189 -41 -31 -19 -100 -75 -151 -123 -52 -49 -94 -87
-94 -85 0 3 25 59 55 126 100 225 117 309 91 473 -15 96 -15 109 -1 149 41
116 186 344 405 635 l141 188 -3 86 -3 86 -289 -335 c-159 -184 -294 -341
-301 -348 -12 -13 -12 -14 -86 536 l-22 162 -67 0 -67 0 3 -67 c2 -38 11 -212
19 -388 9 -176 20 -358 25 -405 6 -47 10 -150 10 -230 l0 -146 -157 -226 -158
-226 -17 56 c-9 31 -59 212 -112 402 -52 190 -114 401 -136 470 -33 99 -43
145 -47 222 -6 111 10 329 37 498 11 63 18 116 16 117 -2 2 -35 -4 -73 -13
l-70 -17 -48 -156 c-27 -86 -52 -160 -55 -164 -4 -5 -83 109 -176 252 -93 143
-172 261 -175 261 -3 0 -27 -16 -52 -36z m3813 -2635 c0 -13 -52 -107 -143
-259 -38 -63 -71 -118 -73 -122 -2 -3 15 0 39 7 23 7 170 52 325 100 156 47
285 85 287 83 7 -7 -26 -139 -54 -217 -135 -371 -448 -690 -911 -930 -106 -55
-196 -90 -425 -167 -346 -115 -361 -121 -400 -149 -17 -12 -86 -106 -154 -209
-68 -102 -128 -186 -132 -186 -7 0 -384 164 -726 316 l-38 17 53 9 c81 12 190
52 319 115 237 115 395 245 513 423 326 491 574 768 855 955 183 123 362 194
535 214 109 12 130 12 130 0z"/>
<path d="M8373 6150 c-60 -36 -52 -114 14 -145 47 -23 95 -13 127 26 29 34 31
47 14 84 -24 53 -98 70 -155 35z"/>
</g>
</svg>
