<?xml version="1.0" standalone="no"?>
<!DOCTYPE svg PUBLIC "-//W3C//DTD SVG 20010904//EN"
 "http://www.w3.org/TR/2001/REC-SVG-20010904/DTD/svg10.dtd">
<svg version="1.0" xmlns="http://www.w3.org/2000/svg"
 width="1280.000000pt" height="1280.000000pt" viewBox="0 0 1280.000000 1280.000000"
 preserveAspectRatio="xMidYMid meet">

<g transform="translate(0.000000,1280.000000) scale(0.100000,-0.100000)"
fill="#000000" stroke="none">
<path d="M3265 9530 l-3130 -3130 3133 -3133 3132 -3132 3130 3130 3130 3130
-3133 3133 -3132 3132 -3130 -3130z m5772 -5768 c-1447 -1448 -2637 -2631
-2644 -2630 -6 2 -1193 1188 -2639 2636 l-2627 2634 2634 2634 2634 2634 2637
-2637 2638 -2638 -2633 -2633z"/>
<path d="M6516 8507 c-241 -688 -443 -1256 -447 -1261 -5 -5 -11 -7 -14 -5 -2
3 112 369 255 813 143 445 260 812 260 817 0 9 -89 64 -94 58 -2 -2 -99 -377
-216 -834 -117 -456 -216 -834 -220 -838 -4 -5 -43 -2 -85 7 -345 71 -689
-120 -830 -460 -16 -38 -32 -73 -36 -78 -5 -5 -69 36 -143 92 -75 56 -138 102
-141 102 -2 0 2 -15 11 -32 11 -23 50 -56 132 -111 83 -56 134 -98 177 -148
57 -67 62 -70 95 -65 28 4 45 0 75 -21 l40 -26 -23 25 -23 25 99 7 99 7 154
-76 153 -77 29 33 c15 19 54 66 86 104 l59 71 -34 84 c-19 46 -34 88 -34 93 0
9 125 3 196 -9 l31 -6 18 71 17 71 71 0 71 0 -30 -32 c-16 -18 -79 -87 -139
-153 l-109 -120 155 153 154 152 58 0 c31 0 57 2 57 5 0 3 -10 19 -22 36 l-22
29 49 50 c33 34 51 46 56 38 6 -9 28 -3 83 21 41 18 79 30 85 27 5 -3 15 -29
22 -56 7 -28 15 -50 18 -49 3 0 62 46 130 102 82 67 134 117 151 147 58 100
122 222 113 217 -5 -3 -56 -44 -113 -91 l-105 -86 -85 0 -85 0 91 93 c50 50
393 398 763 772 l671 680 -45 45 c-28 28 -48 41 -53 34 -4 -6 -356 -390 -784
-855 -533 -580 -794 -856 -833 -882 -40 -28 -54 -43 -50 -56 3 -11 -12 -37
-46 -74 l-51 -58 -42 38 c-23 21 -56 49 -73 63 l-32 25 125 215 c399 682 635
1094 631 1104 -5 12 -75 52 -81 45 -1 -2 -155 -304 -341 -671 -186 -368 -340
-667 -341 -665 -2 2 233 661 779 2182 l115 320 -72 37 c-39 20 -78 37 -86 37
-11 1 -132 -332 -454 -1252z"/>
<path d="M6176 8749 c-16 -43 -22 -50 -40 -45 -75 21 -63 34 -91 -104 -17 -82
-19 -77 42 -111 24 -13 33 -30 51 -92 12 -43 24 -77 26 -77 1 0 18 21 36 48
19 26 64 81 102 123 l67 76 -34 113 c-19 62 -35 114 -35 116 0 2 -24 4 -53 4
l-53 0 -18 -51z"/>
<path d="M9006 8166 l-36 -114 -98 -4 c-137 -5 -154 -18 -171 -129 -14 -95
-18 -89 84 -144 l55 -29 64 63 64 64 121 -82 121 -82 0 150 0 150 -80 135
c-44 75 -82 136 -84 136 -2 0 -20 -51 -40 -114z"/>
<path d="M6939 8162 c-16 -23 -33 -68 -43 -117 l-17 -80 51 -47 c28 -27 55
-48 59 -48 5 0 25 20 45 44 25 31 40 62 48 100 9 49 8 62 -13 120 l-23 66 -21
-20 c-21 -19 -21 -19 -40 0 -20 19 -20 19 -46 -18z"/>
<path d="M7920 7859 c-173 -122 -612 -431 -975 -687 -595 -419 -739 -522 -651
-468 16 10 133 82 260 161 127 78 445 275 706 437 261 162 583 361 715 443
132 81 248 155 258 163 13 11 17 30 16 76 -1 112 20 120 -329 -125z"/>
<path d="M7998 7476 c-31 -35 -85 -143 -76 -151 2 -2 68 -10 148 -19 80 -10
161 -20 180 -23 34 -5 30 0 -85 116 -66 67 -122 121 -125 120 -3 0 -22 -20
-42 -43z"/>
<path d="M9445 7420 c-143 -37 -503 -131 -800 -208 -1520 -393 -2303 -597
-2297 -600 4 -1 284 61 622 137 782 178 1768 401 2345 531 248 56 451 103 453
105 6 5 -48 105 -56 104 -4 0 -124 -31 -267 -69z"/>
<path d="M7520 7207 c-36 -18 -289 -138 -562 -267 -274 -129 -496 -235 -494
-237 3 -3 1136 433 1143 441 8 7 -7 96 -15 95 -4 0 -36 -15 -72 -32z"/>
<path d="M8945 6905 c-687 -117 -1539 -262 -1892 -322 -354 -59 -639 -109
-634 -111 5 -2 442 56 972 128 530 72 1362 185 1849 251 487 65 904 122 928
125 l42 6 0 69 c0 38 -3 69 -7 68 -5 -1 -570 -97 -1258 -214z"/>
<path d="M4657 6772 c3 -14 76 -54 251 -137 136 -65 250 -120 255 -122 4 -2 7
-2 7 1 0 3 -483 263 -511 274 -4 2 -5 -6 -2 -16z"/>
<path d="M4330 6575 c-18 -19 -20 -26 -9 -29 21 -8 862 -137 865 -133 3 3
-814 188 -827 187 -3 0 -16 -11 -29 -25z"/>
<path d="M7665 6547 c-45 -41 -77 -60 -130 -77 -38 -12 -74 -26 -78 -30 -8 -7
7 -102 21 -139 5 -12 -27 -13 -224 -7 -556 16 -566 13 -54 -14 300 -16 586
-34 635 -40 50 -7 119 -9 155 -6 36 2 445 -13 909 -35 464 -21 846 -37 848
-35 2 2 -11 15 -29 29 l-33 24 -755 23 c-415 12 -783 25 -817 28 l-62 7 55 63
c30 35 54 66 54 70 0 7 -411 192 -427 192 -4 0 -35 -24 -68 -53z m40 -247 c18
-20 17 -20 -61 -19 l-79 1 55 18 c69 24 64 24 85 0z"/>
<path d="M6198 6403 l-3 -78 -64 -43 c-54 -36 -66 -40 -80 -30 -14 11 -14 11
-3 -3 11 -14 6 -21 -38 -49 -45 -29 -52 -31 -68 -18 -247 212 -305 258 -315
251 -7 -4 -59 -48 -115 -97 l-104 -90 -134 34 c-74 18 -134 37 -134 42 0 4
-30 7 -67 7 -51 -1 -59 -3 -34 -8 32 -6 35 -10 46 -58 7 -29 10 -53 8 -53 -2
0 3 -10 11 -22 27 -38 20 -55 -26 -66 -24 -5 -436 -97 -916 -203 -902 -200
-901 -200 -890 -243 3 -13 103 11 1329 314 289 71 528 130 532 130 4 0 7 -6 7
-14 0 -9 -53 -27 -157 -55 -87 -23 -227 -61 -310 -83 -152 -41 -153 -41 -153
-69 0 -16 3 -29 6 -29 3 0 144 45 312 100 168 55 307 98 309 96 3 -3 -394
-221 -879 -482 -99 -53 -108 -60 -108 -86 0 -16 3 -27 8 -25 4 2 226 133 494
291 268 157 491 286 496 286 6 0 28 -26 50 -58 l40 -58 -570 -455 c-313 -250
-577 -460 -586 -467 -15 -12 -13 -17 28 -52 33 -28 49 -36 60 -29 8 5 161 143
340 308 253 232 327 295 332 282 4 -9 20 -32 36 -51 l30 -34 41 19 c41 18 42
18 64 -3 l22 -20 42 25 c35 21 44 33 57 78 9 29 16 55 16 58 0 15 -64 42 -121
51 l-66 11 145 132 144 133 71 -66 c83 -77 217 -147 322 -169 89 -19 211 -19
300 0 97 20 237 92 312 159 33 31 65 56 69 56 6 0 702 -554 777 -619 16 -13
15 -8 -5 39 -26 60 -11 47 -528 425 -264 193 -236 168 -214 198 10 15 22 27
26 27 5 0 232 -175 505 -389 l498 -389 25 24 c15 15 21 27 15 33 -6 4 -143
104 -305 221 -581 419 -720 522 -720 530 0 4 7 13 15 20 12 10 60 -16 267
-143 553 -338 668 -406 668 -396 0 5 -9 27 -20 48 -21 42 -12 37 -667 395
l-233 128 21 41 c12 23 23 43 24 45 3 3 383 -93 494 -125 46 -13 51 -17 39
-29 -13 -14 -54 -11 -154 11 -16 3 -26 -5 -42 -34 -12 -21 -22 -41 -22 -44 0
-4 130 -104 158 -121 7 -4 112 -25 233 -46 l219 -37 0 22 c0 12 3 35 6 51 4
24 -2 37 -32 73 -21 24 -52 50 -68 57 -17 7 -26 13 -21 14 6 0 141 -33 300
-74 160 -41 291 -73 293 -71 4 4 30 179 27 183 -1 1 -318 47 -705 102 -386 54
-704 101 -706 103 -2 2 0 17 5 34 9 30 8 31 -42 50 -38 15 -59 31 -79 59 -15
22 -55 62 -89 89 -108 86 -98 86 -101 -2z"/>
<path d="M6363 6463 c9 -2 23 -2 30 0 6 3 -1 5 -18 5 -16 0 -22 -2 -12 -5z"/>
<path d="M3280 6440 c0 -3 10 -16 23 -27 21 -19 46 -21 472 -38 248 -10 452
-19 454 -22 3 -2 -3 -19 -12 -38 -9 -20 -17 -37 -17 -38 0 -2 28 -24 63 -50
51 -37 76 -48 128 -56 87 -15 84 -15 108 24 19 32 24 35 67 35 l46 0 -4 56 -5
55 196 -5 196 -5 -170 14 c-93 7 -213 16 -265 20 -79 5 -97 9 -109 25 -11 17
-25 20 -94 20 -55 0 -83 -4 -91 -13 -11 -13 -173 -5 -918 46 -38 2 -68 1 -68
-3z m1220 -94 c0 -3 -4 -8 -10 -11 -5 -3 -10 -1 -10 4 0 6 5 11 10 11 6 0 10
-2 10 -4z"/>
<path d="M3618 6207 c-51 -38 -79 -80 -63 -95 7 -7 235 -30 304 -31 l44 -1
-107 85 c-59 47 -110 85 -114 84 -4 0 -32 -19 -64 -42z"/>
<path d="M5013 6193 c9 -2 23 -2 30 0 6 3 -1 5 -18 5 -16 0 -22 -2 -12 -5z"/>
<path d="M4928 6183 c12 -2 30 -2 40 0 9 3 -1 5 -23 4 -22 0 -30 -2 -17 -4z"/>
<path d="M4110 6094 c-393 -46 -884 -103 -1090 -126 l-375 -43 -3 -29 c-3 -27
-2 -28 30 -23 18 4 521 72 1118 152 597 80 1092 147 1100 149 61 15 -163 -8
-780 -80z"/>
<path d="M4175 5780 l61 -61 47 18 c44 16 47 19 47 54 0 45 -10 49 -130 49
l-85 0 60 -60z"/>
<path d="M3634 5507 c-2 -7 -13 -41 -23 -75 l-19 -62 66 -91 c54 -73 68 -87
74 -72 4 10 14 35 22 55 13 32 20 38 55 44 24 4 49 17 64 33 26 28 50 88 42
102 -3 4 -30 16 -60 25 -51 16 -56 16 -73 1 -25 -22 -24 -22 -88 18 -40 26
-56 32 -60 22z"/>
</g>
</svg>
