<?xml version="1.0" standalone="no"?>
<!DOCTYPE svg PUBLIC "-//W3C//DTD SVG 20010904//EN"
 "http://www.w3.org/TR/2001/REC-SVG-20010904/DTD/svg10.dtd">
<svg version="1.0" xmlns="http://www.w3.org/2000/svg"
 width="1280.000000pt" height="1280.000000pt" viewBox="0 0 1280.000000 1280.000000"
 preserveAspectRatio="xMidYMid meet">

<g transform="translate(0.000000,1280.000000) scale(0.100000,-0.100000)"
fill="#000000" stroke="none">
<path d="M3265 9530 l-3130 -3130 3133 -3133 3132 -3132 3132 3132 3133 3133
-3130 3130 c-1721 1721 -3132 3130 -3135 3130 -3 0 -1414 -1409 -3135 -3130z
m5775 -495 l2635 -2635 -2638 -2638 -2637 -2637 -2637 2637 -2638 2638 2635
2635 c1449 1449 2637 2635 2640 2635 3 0 1191 -1186 2640 -2635z"/>
<path d="M6697 8889 c-58 -14 -134 -56 -177 -99 -60 -60 -83 -113 -88 -202 -4
-69 -2 -84 22 -132 14 -29 49 -75 76 -100 97 -90 71 -84 1090 -253 924 -152
1001 -168 1016 -207 3 -8 -7 -36 -23 -63 -26 -44 -28 -56 -28 -153 0 -91 3
-111 23 -149 14 -26 34 -47 51 -54 l28 -10 -13 -53 c-6 -29 -33 -123 -59 -207
-44 -148 -46 -158 -36 -213 22 -116 78 -174 153 -160 75 14 124 86 135 198 5
57 1 82 -35 204 -23 76 -46 161 -52 189 -11 47 -10 50 15 68 49 36 69 92 69
192 0 83 -3 96 -37 165 -22 44 -37 89 -37 110 0 19 25 198 54 397 48 328 51
361 35 352 -10 -5 -32 -27 -49 -48 -40 -49 -97 -81 -148 -81 -22 0 -148 20
-279 44 -413 77 -998 184 -1268 231 -258 45 -359 53 -438 34z m1127 -283 c489
-85 890 -157 893 -159 6 -7 -29 -217 -37 -217 -4 0 -264 22 -576 50 -313 27
-738 63 -944 80 -206 17 -397 35 -425 41 -109 21 -169 81 -169 168 1 84 54
146 157 183 40 14 70 18 132 14 44 -3 480 -75 969 -160z"/>
<path d="M5855 8844 c-100 -16 -685 -118 -1137 -200 -619 -111 -572 -111 -685
-1 -40 39 -75 68 -77 66 -2 -2 23 -161 55 -354 33 -193 60 -381 60 -419 -1
-57 -8 -86 -45 -180 -25 -61 -48 -127 -51 -148 -9 -48 17 -137 52 -179 21 -24
27 -41 24 -68 -4 -57 -29 -157 -71 -286 -50 -157 -54 -181 -40 -263 13 -82 37
-125 81 -148 77 -39 162 12 193 117 22 73 21 88 -18 240 -33 129 -60 259 -69
327 -2 23 0 32 11 32 37 0 82 34 104 78 18 38 23 63 22 132 0 72 -5 98 -33
169 -38 96 -34 118 28 145 20 9 392 77 826 151 955 162 947 161 1012 191 148
70 235 221 203 353 -24 103 -101 182 -216 221 -56 20 -175 32 -229 24z m224
-166 c125 -62 122 -222 -6 -291 -59 -31 -79 -34 -503 -72 -157 -14 -521 -48
-810 -75 -289 -28 -538 -51 -555 -52 l-30 -3 -17 105 c-10 58 -14 108 -10 111
4 3 185 37 402 74 217 37 609 105 870 151 524 92 570 96 659 52z"/>
<path d="M9551 7865 c-96 -103 -119 -166 -100 -269 15 -82 7 -103 -44 -125
-74 -32 -127 -112 -127 -193 -1 -58 -29 -118 -75 -156 l-38 -31 13 -60 c7 -34
17 -61 22 -61 23 0 88 43 122 80 53 59 86 134 86 195 0 62 17 88 75 114 29 13
53 34 72 62 27 42 28 47 26 160 l-2 117 64 70 c36 39 65 74 65 78 -1 5 -23 26
-49 46 l-49 38 -61 -65z"/>
<path d="M9133 7815 c-8 -23 4 -100 22 -135 31 -60 19 -96 -50 -144 -44 -31
-65 -89 -65 -187 0 -108 -12 -143 -66 -199 l-43 -45 44 -50 44 -50 55 55 c71
69 98 135 98 235 -1 115 4 130 48 159 75 50 104 146 72 242 -11 32 -22 70 -24
84 -2 19 -11 26 -43 32 -22 4 -50 10 -63 13 -15 4 -24 0 -29 -10z"/>
<path d="M7760 7761 l-45 -39 33 -38 c17 -22 44 -61 58 -89 24 -44 26 -56 21
-121 -11 -126 31 -209 125 -248 41 -18 47 -30 46 -101 -2 -81 78 -212 153
-251 49 -25 57 -19 66 49 8 60 7 63 -20 86 -42 36 -60 79 -67 158 -8 90 -39
141 -104 172 -24 12 -49 28 -55 35 -6 7 -9 53 -8 107 2 92 1 98 -35 170 -34
67 -97 149 -116 149 -4 0 -27 -18 -52 -39z"/>
<path d="M8130 7723 c-34 -4 -36 -6 -47 -56 -6 -29 -17 -74 -23 -100 -22 -89
7 -145 116 -223 26 -19 28 -26 25 -65 -11 -140 11 -207 94 -289 l45 -44 47 46
47 47 -47 50 c-54 57 -50 46 -51 171 -1 113 -18 148 -96 204 -56 40 -59 52
-35 130 8 27 15 69 15 93 0 47 4 46 -90 36z"/>
<path d="M4752 7234 c-27 -30 -62 -78 -78 -107 -27 -49 -29 -59 -29 -167 l0
-115 -60 -31 c-79 -41 -93 -62 -107 -164 -6 -47 -17 -93 -23 -103 -10 -15 -14
-2 -20 75 l-7 93 50 45 c92 83 108 135 77 250 -8 30 -15 69 -15 86 0 31 -1 31
-62 41 -46 8 -65 7 -70 -1 -9 -13 -2 -79 18 -157 8 -31 14 -59 14 -62 0 -3
-29 -34 -64 -69 -79 -78 -94 -120 -77 -216 11 -58 10 -68 -9 -108 -12 -24 -35
-55 -51 -69 l-30 -25 40 -56 40 -56 45 46 46 45 0 -29 c0 -23 4 -30 20 -30 56
0 137 65 178 144 12 21 24 64 27 95 10 94 12 99 51 111 50 17 110 77 123 125
6 23 8 74 4 125 -7 100 0 118 72 198 l47 52 -38 44 c-22 24 -44 45 -51 45 -6
1 -34 -24 -61 -55z"/>
<path d="M3251 7219 c-59 -47 -61 -34 21 -125 63 -71 69 -92 62 -196 -7 -113
7 -146 82 -195 99 -66 94 -59 94 -121 0 -71 25 -126 76 -173 55 -49 127 -97
140 -92 6 2 25 -15 43 -37 17 -22 38 -40 44 -40 13 0 87 70 87 82 0 4 -22 36
-49 72 l-49 64 5 104 c5 123 -3 143 -91 208 -31 22 -56 42 -56 44 0 1 9 38 20
81 11 43 20 93 20 112 l0 34 -67 -3 -67 -3 -3 -35 c-2 -19 -10 -62 -18 -95 -8
-33 -16 -72 -17 -88 l-3 -27 -32 20 -33 20 7 89 c9 127 -8 167 -118 289 l-47
52 -51 -41z m417 -581 c13 -13 15 -72 3 -102 -12 -30 -23 -3 -24 60 -2 56 1
62 21 42z"/>
<path d="M8175 6768 c-32 -13 -94 -22 -176 -28 -135 -9 -156 -15 -188 -56 -26
-33 -27 -78 -3 -126 l19 -36 -151 -4 c-135 -3 -156 -6 -199 -27 -64 -31 -100
-86 -101 -151 l-1 -48 -71 -7 c-121 -11 -202 -78 -212 -173 -6 -68 11 -113 62
-160 46 -42 96 -62 157 -62 36 0 36 0 41 -50 9 -91 78 -150 199 -172 l59 -10
0 -43 c0 -71 62 -140 149 -165 62 -19 244 -29 611 -36 524 -10 717 12 933 105
135 59 212 80 323 88 l84 6 0 63 0 64 -69 0 c-126 0 -219 -25 -431 -113 -179
-75 -427 -96 -955 -78 -203 7 -392 17 -419 22 -51 10 -96 32 -96 49 0 30 49
35 358 40 l312 5 -61 68 -61 67 -367 0 c-365 0 -368 0 -401 23 -88 59 -49 67
331 67 l319 0 0 72 0 71 -431 -6 c-462 -7 -483 -5 -509 42 -13 25 0 55 30 71
12 6 180 10 464 10 l446 0 0 70 0 70 -318 0 c-302 0 -320 1 -336 19 -20 22
-10 52 21 67 10 5 212 10 449 12 l431 3 6 -56 c8 -76 47 -156 102 -210 72 -70
217 -131 358 -151 42 -6 47 -4 47 13 0 11 3 41 6 66 l6 45 -58 12 c-205 40
-324 127 -324 237 0 35 3 43 18 43 15 0 346 74 377 84 16 6 -13 13 -117 31
-54 9 -98 20 -98 24 0 4 35 22 79 39 60 25 84 30 102 23 13 -5 90 -47 171 -95
89 -52 166 -90 195 -96 67 -14 253 -30 346 -30 l77 0 0 64 0 63 -127 7 c-250
14 -274 19 -392 90 -164 97 -182 107 -250 136 l-65 28 -49 -34 c-68 -47 -144
-67 -252 -68 -112 0 -213 29 -282 80 -26 20 -52 40 -58 44 -5 4 -32 -2 -60
-12z m73 -162 c40 -25 133 -61 197 -75 29 -6 -17 -9 -160 -10 -216 -1 -260 6
-315 47 l-34 26 24 7 c14 4 50 8 80 9 30 0 73 5 95 9 63 14 73 12 113 -13z"/>
<path d="M2300 5970 l0 -320 1735 0 1735 0 0 320 0 320 -626 0 -626 0 -50 -45
c-99 -89 -223 -129 -403 -129 -128 -1 -193 14 -265 59 -38 24 -100 89 -100
105 0 6 -257 10 -700 10 l-700 0 0 -320z"/>
</g>
</svg>
