<?xml version="1.0" standalone="no"?>
<!DOCTYPE svg PUBLIC "-//W3C//DTD SVG 20010904//EN"
 "http://www.w3.org/TR/2001/REC-SVG-20010904/DTD/svg10.dtd">
<svg version="1.0" xmlns="http://www.w3.org/2000/svg"
 width="1280.000000pt" height="1280.000000pt" viewBox="0 0 1280.000000 1280.000000"
 preserveAspectRatio="xMidYMid meet">

<g transform="translate(0.000000,1280.000000) scale(0.100000,-0.100000)"
fill="#000000" stroke="none">
<path d="M3267 9532 c-1720 -1720 -3127 -3132 -3127 -3137 0 -13 6242 -6255
6255 -6255 6 0 1417 1407 3138 3128 l3127 3127 -3133 3133 -3132 3132 -3128
-3128z m5768 -5771 l-2637 -2634 -2636 2636 -2637 2637 2635 2635 2635 2635
2638 -2637 2638 -2638 -2636 -2634z"/>
<path d="M6170 9621 c-227 -50 -457 -185 -549 -322 -58 -87 -81 -156 -81 -243
0 -41 34 -303 75 -583 88 -593 338 -2289 356 -2413 15 -108 39 -176 85 -245
47 -71 102 -118 192 -162 64 -32 83 -37 170 -41 81 -3 107 -1 162 18 152 51
270 172 309 315 6 22 56 348 111 725 88 596 268 1812 332 2235 24 163 19 225
-30 328 -74 159 -292 310 -547 378 -117 31 -462 37 -585 10z"/>
<path d="M6355 5193 c-189 -30 -355 -130 -460 -278 -97 -136 -145 -284 -145
-450 0 -127 21 -219 80 -340 207 -430 756 -529 1088 -196 42 42 92 102 111
133 124 212 144 451 56 684 -76 203 -270 376 -480 429 -64 16 -201 26 -250 18z"/>
</g>
</svg>
