<?xml version="1.0" standalone="no"?>
<!DOCTYPE svg PUBLIC "-//W3C//DTD SVG 20010904//EN"
 "http://www.w3.org/TR/2001/REC-SVG-20010904/DTD/svg10.dtd">
<svg version="1.0" xmlns="http://www.w3.org/2000/svg"
 width="1280.000000pt" height="1280.000000pt" viewBox="0 0 1280.000000 1280.000000"
 preserveAspectRatio="xMidYMid meet">

<g transform="translate(0.000000,1280.000000) scale(0.100000,-0.100000)"
fill="#000000" stroke="none">
<path d="M3265 9530 l-3130 -3130 3133 -3133 3132 -3132 3130 3130 3130 3130
-3133 3133 -3132 3132 -3130 -3130z m5772 -5768 c-1447 -1448 -2637 -2631
-2644 -2630 -6 2 -1193 1188 -2639 2636 l-2627 2634 2634 2634 2634 2634 2637
-2637 2638 -2638 -2633 -2633z"/>
<path d="M7695 7703 c-11 -3 -272 -72 -580 -155 -2696 -720 -3540 -951 -3582
-979 -159 -110 -210 -425 -116 -724 28 -88 87 -210 127 -265 90 -121 216 -208
314 -217 38 -4 157 25 607 145 308 83 790 212 1070 287 1750 468 2485 668
2522 686 89 43 147 137 184 297 23 102 58 161 117 195 18 11 205 66 415 122
535 145 529 143 557 163 73 53 93 195 42 293 -34 66 -105 119 -161 119 -20 0
-238 -54 -485 -120 -247 -66 -465 -120 -484 -120 -76 0 -113 21 -219 123 -67
64 -121 106 -155 122 -54 24 -137 38 -173 28z"/>
</g>
</svg>
