<?xml version="1.0" standalone="no"?>
<!DOCTYPE svg PUBLIC "-//W3C//DTD SVG 20010904//EN"
 "http://www.w3.org/TR/2001/REC-SVG-20010904/DTD/svg10.dtd">
<svg version="1.0" xmlns="http://www.w3.org/2000/svg"
 width="1280.000000pt" height="1280.000000pt" viewBox="0 0 1280.000000 1280.000000"
 preserveAspectRatio="xMidYMid meet">

<g transform="translate(0.000000,1280.000000) scale(0.100000,-0.100000)"
fill="#000000" stroke="none">
<path d="M3265 9530 l-3130 -3130 3133 -3133 3132 -3132 3132 3132 3133 3133
-3130 3130 c-1721 1721 -3132 3130 -3135 3130 -3 0 -1414 -1409 -3135 -3130z
m5775 -495 l2635 -2635 -2638 -2638 -2637 -2637 -2637 2637 -2638 2638 2635
2635 c1449 1449 2637 2635 2640 2635 3 0 1191 -1186 2640 -2635z"/>
<path d="M6255 10419 c-362 -53 -698 -269 -910 -588 -254 -382 -313 -818 -189
-1404 86 -406 264 -818 458 -1062 18 -22 36 -46 40 -53 4 -7 -2 -118 -15 -246
l-22 -234 -504 -182 c-417 -151 -503 -185 -503 -201 0 -26 58 -89 97 -105 18
-8 49 -14 70 -14 34 0 41 -4 58 -36 26 -48 81 -84 133 -87 34 -2 43 -7 52 -28
27 -64 94 -102 173 -98 46 3 49 1 64 -28 16 -33 65 -63 105 -63 17 0 28 -11
42 -41 47 -104 185 -126 271 -44 36 33 36 33 73 18 25 -10 53 -13 88 -9 48 5
52 4 73 -25 12 -16 38 -37 56 -46 26 -12 35 -23 37 -47 2 -21 11 -35 31 -46
24 -13 30 -13 55 0 19 11 28 25 30 47 2 21 10 34 22 38 31 10 88 82 100 127
10 34 9 53 -3 95 -14 52 -14 53 9 68 29 19 32 65 5 89 -18 16 -18 18 0 54 11
20 19 51 19 68 0 26 7 37 33 53 71 44 98 148 57 224 -19 35 -19 37 -2 37 27 0
52 32 52 67 0 37 -20 55 -63 57 -17 1 -46 11 -64 22 -29 18 -30 21 -17 44 9
16 13 51 12 98 -1 71 0 74 27 92 69 46 95 147 56 223 -18 36 -18 37 1 43 28 8
58 63 58 105 0 22 -10 51 -25 73 -19 29 -23 41 -15 56 5 10 10 30 10 43 0 15
7 27 18 30 9 2 26 8 36 13 12 5 17 4 13 -3 -10 -15 11 -78 32 -97 14 -13 17
-26 14 -61 -7 -55 27 -131 69 -154 27 -15 29 -20 23 -56 -7 -54 17 -132 54
-173 l30 -32 -23 -15 c-13 -9 -31 -33 -41 -55 -23 -52 -13 -104 28 -145 29
-29 32 -38 29 -77 -3 -38 1 -50 25 -79 26 -30 28 -39 21 -69 -8 -36 -2 -103
13 -131 12 -24 -8 -39 -37 -29 -74 29 -119 -77 -47 -110 22 -10 33 -22 33 -37
0 -12 7 -43 16 -69 13 -37 13 -52 4 -72 -6 -14 -11 -54 -11 -89 0 -51 5 -74
28 -116 24 -44 27 -59 20 -81 -14 -43 7 -103 46 -126 60 -37 143 -18 168 39
10 22 25 34 57 44 42 14 44 14 67 -9 33 -33 87 -33 120 1 34 33 33 84 0 123
-21 25 -24 35 -15 56 8 23 13 25 42 19 18 -4 41 -17 51 -29 9 -12 33 -28 52
-34 30 -10 41 -9 74 7 l39 20 27 -29 c32 -34 90 -38 125 -10 19 15 29 17 59 9
78 -21 146 43 139 129 -3 42 -2 44 25 44 35 0 87 49 87 81 0 21 0 21 26 -4 58
-58 151 -39 189 39 11 22 30 54 43 71 12 17 22 38 22 47 0 10 9 16 25 16 32 0
67 35 63 62 -3 19 -68 42 -553 198 l-550 177 -6 214 -6 214 52 65 c77 96 117
154 173 255 220 395 415 1178 381 1534 -23 243 -128 508 -295 743 -76 106
-267 300 -364 367 -268 187 -555 262 -845 220z"/>
<path d="M4050 6251 c-151 -59 -291 -116 -310 -126 -99 -52 -208 -205 -230
-324 -5 -29 -10 -189 -10 -354 l0 -299 471 -479 c363 -369 477 -479 496 -479
33 0 84 23 106 48 15 16 26 19 58 15 90 -12 177 54 186 141 l5 45 28 -20 c92
-68 225 6 219 122 -2 42 1 50 28 73 29 25 32 25 62 10 42 -21 95 -4 122 40 23
37 24 52 4 90 -14 27 -14 30 5 43 11 8 27 28 36 44 l15 30 26 -21 c14 -11 32
-20 39 -20 9 0 11 -13 7 -52 -5 -48 -3 -56 22 -80 61 -61 165 -20 165 66 0 28
-7 45 -30 67 l-30 30 21 28 c12 17 20 44 21 69 0 24 5 42 12 42 6 0 20 3 31 5
15 4 24 -2 37 -25 14 -25 23 -30 53 -30 79 0 104 102 32 129 -19 8 -22 15 -19
55 3 28 9 46 16 46 21 0 46 35 46 62 0 25 -21 50 -51 61 -9 3 -19 19 -22 35
-3 17 -20 46 -37 65 -16 19 -30 44 -30 56 0 61 -56 128 -125 151 -33 11 -82 8
-121 -7 -10 -4 -14 3 -14 26 0 42 -39 81 -80 81 -27 0 -30 3 -30 31 0 105
-124 194 -221 160 -29 -10 -35 -8 -70 24 -22 19 -44 35 -50 35 -7 0 -9 9 -6
22 8 28 -16 84 -41 97 -12 6 -34 11 -50 11 -26 0 -31 4 -36 35 -14 72 -115
145 -183 132 -20 -4 -31 1 -45 18 -23 29 -69 40 -99 24 -19 -9 -24 -9 -27 1
-3 8 -15 24 -28 37 -39 39 -78 30 -374 -86z"/>
<path d="M8545 6315 c-14 -13 -25 -28 -25 -32 0 -4 -21 -8 -46 -8 -38 0 -50
-5 -70 -28 -13 -15 -24 -39 -24 -53 0 -24 -1 -24 -30 -9 -36 19 -112 19 -148
1 -43 -22 -79 -67 -93 -114 -11 -39 -15 -43 -38 -39 -41 8 -117 -12 -159 -43
-48 -35 -92 -118 -92 -175 l0 -41 -36 4 c-26 3 -44 -2 -65 -17 -22 -17 -37
-20 -67 -15 -100 16 -213 -63 -229 -160 -5 -30 -10 -36 -30 -36 -64 0 -121
-69 -108 -129 5 -26 5 -26 -45 -23 -46 4 -53 1 -85 -31 -29 -29 -35 -42 -35
-79 0 -25 7 -54 17 -68 13 -19 14 -25 4 -28 -53 -18 -67 -88 -25 -121 35 -27
56 -26 92 4 16 13 32 22 35 19 3 -3 19 -6 36 -6 28 -1 31 -4 31 -32 0 -17 3
-41 6 -53 5 -17 2 -23 -9 -23 -35 0 -59 -76 -41 -125 8 -19 55 -45 84 -45 12
0 35 13 51 29 27 27 33 29 84 24 l55 -6 0 -38 c0 -20 3 -44 6 -53 4 -10 1 -16
-9 -16 -29 0 -67 -40 -67 -71 0 -62 77 -92 122 -47 15 15 23 18 26 9 8 -25 62
-79 91 -91 29 -12 105 -10 146 4 16 5 23 -1 37 -34 13 -33 26 -45 65 -62 48
-21 73 -20 136 7 14 6 17 2 17 -19 0 -37 23 -78 60 -110 33 -28 100 -50 128
-42 9 2 27 7 39 11 20 6 21 3 16 -29 -12 -72 36 -126 111 -126 31 0 75 38 525
452 l491 452 0 337 c0 308 -2 342 -20 401 -40 131 -164 270 -320 361 -52 30
-511 187 -547 187 -13 0 -35 -11 -48 -25z"/>
<path d="M6417 6249 c-46 -27 -53 -105 -13 -138 15 -13 15 -15 -4 -28 -42 -29
-15 -113 36 -113 51 0 79 53 54 101 -8 15 -7 19 4 19 22 0 56 49 56 82 0 61
-80 108 -133 77z"/>
<path d="M6303 5865 c-45 -31 -20 -115 33 -115 33 0 64 29 64 59 0 55 -55 86
-97 56z"/>
<path d="M5710 5797 c-28 -14 -50 -51 -50 -85 0 -36 52 -82 93 -82 82 0 119
101 56 154 -34 29 -61 32 -99 13z"/>
<path d="M6735 5625 c-14 -13 -25 -36 -25 -50 0 -32 33 -65 65 -65 16 0 25 -6
25 -16 0 -8 13 -29 29 -45 22 -21 39 -29 66 -29 48 0 95 44 95 89 0 48 -47 95
-97 96 -24 0 -50 9 -68 23 -36 28 -60 28 -90 -3z"/>
<path d="M5773 5479 c-70 -26 -41 -130 33 -116 18 3 25 -2 35 -25 14 -35 37
-48 82 -48 75 0 110 97 53 146 -30 26 -84 32 -104 12 -10 -10 -15 -8 -27 9
-17 25 -43 33 -72 22z"/>
<path d="M6969 5001 c-20 -20 -29 -39 -29 -61 0 -22 -8 -38 -24 -51 -42 -33
-39 -83 7 -114 32 -21 72 -6 95 35 9 17 27 33 40 36 12 4 34 20 48 37 75 89
-55 200 -137 118z"/>
<path d="M6230 4885 c-52 -55 -15 -145 60 -145 65 0 105 60 80 121 -15 36 -37
49 -83 49 -23 0 -41 -8 -57 -25z"/>
<path d="M5730 4880 c-28 -28 -27 -84 2 -104 49 -35 111 -4 111 54 0 61 -71
92 -113 50z"/>
<path d="M5815 4677 c-41 -41 -46 -80 -16 -119 l20 -25 -54 5 c-45 4 -61 0
-98 -22 -25 -14 -47 -32 -50 -41 -5 -13 -11 -12 -42 6 -69 41 -159 19 -195
-48 -12 -23 -20 -29 -31 -22 -8 5 -34 9 -59 9 -79 0 -140 -57 -140 -130 0 -16
-2 -30 -4 -30 -3 0 -21 10 -41 22 -82 47 -205 19 -263 -61 -21 -29 -32 -37
-43 -30 -8 5 -34 9 -59 9 -81 0 -140 -57 -140 -134 0 -34 47 -83 852 -901 847
-860 853 -866 870 -844 22 26 23 49 4 74 -12 17 -11 22 6 46 19 25 19 29 5 58
-13 27 -14 36 -3 62 17 39 9 75 -19 97 l-22 17 38 43 c70 80 88 201 43 295
l-18 37 27 28 c33 35 47 72 47 128 0 54 -18 92 -60 128 -30 24 -30 27 -16 48
22 31 20 80 -3 110 -13 16 -17 29 -10 39 14 22 10 77 -7 104 -9 14 -34 30 -55
37 -39 11 -40 12 -34 52 4 23 2 53 -4 69 -9 22 -8 27 5 27 9 0 29 13 45 29 40
40 41 97 2 135 -23 23 -25 30 -15 44 56 78 53 171 -8 232 -22 22 -22 22 -4 63
21 46 23 102 4 146 -10 26 -9 32 9 50 28 28 26 66 -4 96 -28 29 -51 31 -83 9
-21 -14 -24 -14 -53 10 -34 29 -84 41 -137 32 -28 -4 -41 -1 -58 15 -11 11
-37 22 -57 26 -32 5 -41 1 -72 -30z"/>
<path d="M6791 4667 c-38 -19 -64 -61 -64 -104 l0 -39 -49 0 c-42 1 -53 -3
-74 -27 -42 -49 -28 -121 31 -154 12 -7 13 -15 5 -43 -15 -49 -3 -102 31 -150
25 -34 28 -44 18 -62 -18 -33 -7 -143 18 -176 18 -25 21 -38 16 -91 -5 -48 -9
-61 -20 -57 -8 4 -19 6 -24 6 -5 0 -4 11 1 26 17 43 11 65 -24 100 -24 25 -43
34 -66 34 -23 0 -41 -9 -66 -34 -36 -36 -43 -70 -23 -107 8 -17 5 -25 -20 -48
-57 -54 -33 -148 43 -167 22 -5 24 -9 15 -31 -26 -69 3 -191 55 -230 l22 -17
-39 -30 c-93 -72 -110 -189 -43 -289 22 -31 23 -37 10 -48 -34 -28 -55 -88
-55 -157 0 -231 1 -265 11 -277 6 -8 1 -30 -15 -63 -30 -62 -31 -73 -7 -102
l18 -22 922 851 c834 770 922 855 922 882 0 48 -47 89 -102 89 -37 0 -45 4
-60 29 -24 44 -71 64 -134 59 l-53 -5 -10 43 c-21 83 -114 144 -195 129 -29
-6 -34 -4 -45 22 -17 41 -64 67 -106 59 -37 -7 -75 -47 -75 -77 0 -24 -9 -24
-36 2 -13 13 -41 23 -67 26 -42 5 -45 7 -50 40 -12 71 -86 133 -159 133 -28 0
-35 5 -45 29 -23 62 -121 78 -162 26 -10 -14 -33 -28 -49 -31 -26 -5 -36 -1
-67 30 -28 29 -43 36 -73 36 -20 0 -48 -6 -61 -13z"/>
<path d="M6400 4270 c-22 -22 -26 -51 -10 -80 7 -13 5 -27 -6 -49 -32 -64 14
-136 88 -136 33 0 45 6 69 33 37 41 38 80 2 123 -17 20 -26 41 -25 56 2 13 -4
35 -12 49 -21 31 -77 33 -106 4z"/>
</g>
</svg>
