<?xml version="1.0" standalone="no"?>
<!DOCTYPE svg PUBLIC "-//W3C//DTD SVG 20010904//EN"
 "http://www.w3.org/TR/2001/REC-SVG-20010904/DTD/svg10.dtd">
<svg version="1.0" xmlns="http://www.w3.org/2000/svg"
 width="1280.000000pt" height="1280.000000pt" viewBox="0 0 1280.000000 1280.000000"
 preserveAspectRatio="xMidYMid meet">

<g transform="translate(0.000000,1280.000000) scale(0.100000,-0.100000)"
fill="#000000" stroke="none">
<path d="M5294 11563 c-599 -604 -2004 -2015 -3124 -3136 l-2035 -2038 1195
-1186 c1498 -1487 2359 -2349 3868 -3868 l1191 -1200 1928 1926 c1060 1059
2473 2466 3138 3127 l1210 1201 -3135 3136 c-1724 1724 -3138 3135 -3141 3135
-3 0 -496 -494 -1095 -1097z m2423 -1206 c1107 -1096 3942 -3943 3951 -3966 3
-8 -3154 -3161 -4431 -4425 l-848 -840 -2631 2632 -2632 2631 860 868 c1291
1303 4397 4414 4405 4411 4 -2 601 -592 1326 -1311z"/>
<path d="M6368 10034 c-110 -235 -138 -414 -138 -873 0 -306 -9 -440 -40 -617
-33 -186 -110 -427 -200 -627 l-22 -49 -28 27 c-63 61 -113 186 -175 435 -89
359 -160 492 -298 559 -62 30 -157 51 -157 35 0 -5 7 -44 15 -87 20 -107 19
-198 -5 -293 -29 -118 -77 -385 -90 -504 -24 -216 11 -413 114 -643 l26 -57
-33 16 c-125 64 -230 169 -374 377 -92 132 -233 296 -276 319 -18 9 -19 6 -13
-64 4 -40 11 -221 16 -403 12 -449 39 -638 126 -906 25 -75 74 -194 109 -265
35 -71 62 -130 60 -132 -9 -10 -211 40 -278 68 -139 58 -246 140 -475 365
-105 103 -142 133 -138 115 3 -14 24 -117 47 -230 264 -1319 531 -1790 1124
-1983 214 -70 430 -107 850 -147 116 -11 217 -20 225 -20 8 1 -26 12 -76 25
-361 95 -671 313 -869 610 -98 147 -195 367 -195 441 l0 36 68 -62 c124 -114
325 -189 562 -208 58 -5 107 -8 109 -6 2 2 -18 38 -45 81 -259 424 -304 517
-304 631 0 32 9 107 20 167 11 60 20 121 20 137 0 15 4 28 10 28 15 0 63 -76
119 -188 59 -117 100 -163 199 -221 81 -47 259 -127 267 -119 3 3 -1 34 -9 69
-45 201 -25 358 89 719 105 328 138 526 119 709 -9 85 -8 91 5 70 9 -13 66
-76 127 -140 61 -63 131 -143 156 -176 162 -221 248 -593 248 -1080 0 -95 3
-173 6 -173 4 0 24 20 46 45 62 70 177 157 275 208 110 57 150 99 208 218 l44
89 8 -57 c4 -32 8 -130 8 -218 -1 -154 -2 -163 -34 -257 -52 -152 -157 -321
-292 -471 -34 -37 -59 -70 -56 -73 26 -26 211 -31 306 -9 72 17 200 75 282
126 29 20 60 39 67 43 7 4 -6 -18 -31 -50 -58 -77 -87 -129 -137 -244 -94
-215 -231 -361 -577 -619 -62 -46 -113 -85 -113 -88 0 -9 247 7 351 23 551 80
945 366 1178 855 148 310 232 720 230 1124 l0 120 -23 -61 c-66 -179 -180
-276 -398 -338 -47 -14 -114 -28 -149 -32 l-63 -7 51 59 c146 171 256 405 315
671 30 135 33 474 5 601 -22 101 -50 187 -84 265 -22 48 -28 55 -40 45 -8 -7
-65 -87 -126 -178 -149 -222 -261 -336 -396 -404 -52 -25 -96 -45 -98 -42 -2
2 7 26 20 53 29 58 61 153 83 248 22 94 31 586 14 724 -25 202 -87 393 -179
554 -80 138 -75 139 -95 -14 -10 -74 -26 -197 -37 -274 -50 -355 -124 -529
-263 -620 -54 -35 -172 -82 -183 -72 -3 4 2 55 11 114 27 169 31 322 12 433
-27 155 -78 286 -238 614 -83 171 -171 354 -196 406 -117 252 -206 503 -237
670 -26 144 -25 144 -67 54z"/>
<path d="M4620 3870 l0 -200 1890 0 1890 0 0 200 0 200 -1890 0 -1890 0 0
-200z"/>
</g>
</svg>
